<?xml version="1.0" ?><!DOCTYPE svg  PUBLIC '-//W3C//DTD SVG 1.1//EN'  'http://www.w3.org/Graphics/SVG/1.1/DTD/svg11.dtd'><svg enable-background="new 0 0 48 48" height="48px" id="Layer_3" version="1.1" viewBox="0 0 48 48" width="48px" xml:space="preserve" xmlns="http://www.w3.org/2000/svg" xmlns:xlink="http://www.w3.org/1999/xlink"><g><polygon fill="#241F20" points="0,2.641 0,35.641 25.761,35.641 25.761,31.641 4,31.641 4,6.641 44,6.641 44,14.391 48,14.391    48,2.641  "/><polygon fill="#241F20" points="41.959,14.391 41.959,11.703 41.959,8.641 38.896,8.641 31.959,8.641 31.959,11.703 38.896,11.703    38.896,14.391  "/><polygon fill="#241F20" points="9.062,11.703 16,11.703 16,8.641 9.062,8.641 6,8.641 6,11.703 6,14.391 9.062,14.391  "/><polygon fill="#241F20" points="16.042,29.683 16.042,26.62 9.104,26.62 9.104,23.933 6.042,23.933 6.042,26.62 6.042,29.683    9.104,29.683  "/><path d="M38.303,17.391c-5.27,0-9.542,4.272-9.542,9.542c0,3.558,1.951,6.655,4.839,8.296v3.267v0.229v6.636   l4.709-4.875l4.697,4.875v-6.636v-0.229v-3.267c2.887-1.641,4.838-4.738,4.838-8.296C47.844,21.663,43.572,17.391,38.303,17.391z    M38.302,31.642c-2.6,0-4.708-2.108-4.708-4.708c0-2.601,2.108-4.708,4.708-4.708c2.601,0,4.708,2.108,4.708,4.708   C43.01,29.533,40.902,31.642,38.302,31.642z" fill="#241F20"/></g></svg>